<svg width="16" height="16" viewBox="0 0 16 16" fill="none" xmlns="http://www.w3.org/2000/svg">
<path fill-rule="evenodd" clip-rule="evenodd" d="M8 16C12.4183 16 16 12.4182 16 8C16 3.58179 12.4183 0 8 0C3.58167 0 0 3.58179 0 8C0 12.4182 3.58167 16 8 16ZM9.99109 9.25342C10.4845 9.41333 11.0133 9.5022 11.5601 9.5022C11.8 9.5022 12 9.70215 12 9.94214V11.4756C12 11.72 11.8756 12 11.5601 12C7.43555 12 4 8.56885 4 4.43994C4 4.10669 4.28894 4 4.52893 4H6.06665C6.30664 4 6.50671 4.19995 6.50671 4.43994C6.50671 4.98657 6.59106 5.51562 6.75562 6.00879C6.80444 6.16455 6.76892 6.33789 6.64893 6.46216L5.78223 7.19995C6.40894 8.5022 7.58667 9.6355 8.84448 10.2356L9.54224 9.36011C9.66223 9.23999 9.83557 9.19995 9.99109 9.25342Z" fill="#9873FF"/>
</svg>
