
<svg xmlns="http://www.w3.org/2000/svg" xmlns:xlink="http://www.w3.org/1999/xlink">

<symbol viewBox="0 0 23 16" id="add_client" xmlns="http://www.w3.org/2000/svg">
  <path d="M14.5 8c2.21 0 4-1.79 4-4s-1.79-4-4-4-4 1.79-4 4 1.79 4 4 4zm-9-2V3h-2v3h-3v2h3v3h2V8h3V6h-3zm9 4c-2.67 0-8 1.34-8 4v2h16v-2c0-2.66-5.33-4-8-4z"/>
</symbol>
<symbol viewBox="0 0 12 12" id="arrow_down" xmlns="http://www.w3.org/2000/svg">
  <g clip-path="url(#ba)"><path d="M2 6l.705.705L5.5 3.915V10h1V3.915L9.29 6.71 10 6 6 2 2 6z"/></g>
  <defs><clipPath id="ba"><path transform="rotate(-180 6 6)" d="M0 0h12v12H0z"/></clipPath></defs>
</symbol>
<symbol viewBox="0 0 12 12" id="arrow_up" xmlns="http://www.w3.org/2000/svg">
  <g clip-path="url(#ca)"><path d="M10 6l-.705-.705L6.5 8.085V2h-1v6.085L2.71 5.29 2 6l4 4 4-4z"/></g><defs><clipPath id="ca"><path d="M0 0h12v12H0z"/></clipPath></defs>
</symbol>
<symbol viewBox="0 0 16 16" id="cancel" xmlns="http://www.w3.org/2000/svg">
  <g opacity=".7" clip-path="url(#da)">
  <path d="M8 2C4.682 2 2 4.682 2 8s2.682 6 6 6 6-2.682 6-6-2.682-6-6-6zm0 10.8A4.806 4.806 0 013.2 8c0-2.646 2.154-4.8 4.8-4.8s4.8 2.154 4.8 4.8-2.154 4.8-4.8 4.8zM10.154 5L8 7.154 5.846 5 5 5.846 7.154 8 5 10.154l.846.846L8 8.846 10.154 11l.846-.846L8.846 8 11 5.846 10.154 5z"/></g>
  <defs><clipPath id="da"><path d="M0 0h16v16H0z"/></clipPath></defs>
</symbol>
<symbol viewBox="0 0 16 16" id="circle-add" xmlns="http://www.w3.org/2000/svg">
  <g clip-path="url(#ea)">
  <path d="M8 4.667c-.367 0-.667.3-.667.666v2h-2c-.366 0-.666.3-.666.667 0 .367.3.667.666.667h2v2c0 .366.3.666.667.666.367 0 .667-.3.667-.666v-2h2c.366 0 .666-.3.666-.667 0-.367-.3-.667-.666-.667h-2v-2c0-.366-.3-.666-.667-.666zm0-3.334A6.67 6.67 0 001.333 8 6.67 6.67 0 008 14.667 6.67 6.67 0 0014.667 8 6.669 6.669 0 008 1.333zm0 12A5.34 5.34 0 012.667 8 5.34 5.34 0 018 2.667 5.34 5.34 0 0113.333 8 5.34 5.34 0 018 13.333z"/></g><defs><clipPath id="ea"><path d="M0 0h16v16H0z"/></clipPath></defs>
</symbol>
<symbol viewBox="0 0 17 17" id="close" xmlns="http://www.w3.org/2000/svg">
  <path fill-rule="evenodd" clip-rule="evenodd" d="M16.233 1.733l-.966-.966L8.5 7.533 1.733.767l-.966.966L7.533 8.5.767 15.267l.966.966L8.5 9.467l6.767 6.766.966-.966L9.467 8.5l6.766-6.767z"/>
</symbol>
<symbol viewBox="0 0 16 16" id="edit" xmlns="http://www.w3.org/2000/svg">
  <g opacity=".7" clip-path="url(#ga)">
  <path d="M2 11.5V14h2.5l7.373-7.373-2.5-2.5L2 11.5zm11.807-6.806c.26-.26.26-.68 0-.94l-1.56-1.56a.664.664 0 00-.94 0l-1.22 1.22 2.5 2.5 1.22-1.22z"/></g>
  <defs><clipPath id="ga"><path d="M0 0h16v16H0z"/></clipPath></defs>
</symbol>
<symbol viewBox="0 0 16 16" id="fb" xmlns="http://www.w3.org/2000/svg"><path d="M8 0C3.6 0 0 3.606 0 8.048c0 4.016 2.928 7.35 6.752 7.952v-5.623H4.72V8.048h2.032V6.273c0-2.016 1.192-3.124 3.024-3.124.872 0 1.784.152 1.784.152v1.984h-1.008c-.992 0-1.304.619-1.304 1.253v1.51h2.224l-.36 2.33H9.248V16a7.992 7.992 0 004.84-2.723A8.051 8.051 0 0016 8.048C16 3.606 12.4 0 8 0z"/>
</symbol>
<symbol viewBox="0 0 16 16" id="mail" xmlns="http://www.w3.org/2000/svg"><path fill-rule="evenodd" clip-rule="evenodd" d="M8 16A8 8 0 108 0a8 8 0 000 16zM4 5.75c0-.412.36-.75.8-.75h6.4c.44 0 .8.338.8.75v4.5c0 .412-.36.75-.8.75H4.8c-.44 0-.8-.338-.8-.75v-4.5zm4.424 2.377l2.616-1.533c.1-.06.16-.162.16-.27 0-.252-.292-.401-.52-.27L8 7.625 5.32 6.054c-.228-.131-.52.018-.52.27 0 .109.06.21.16.27l2.616 1.533c.26.154.588.154.848 0z"/>
</symbol>
<symbol viewBox="0 0 16 16" id="person" xmlns="http://www.w3.org/2000/svg"><path fill-rule="evenodd" clip-rule="evenodd" d="M8 16A8 8 0 108 0a8 8 0 000 16zM3 8c0-2.76 2.24-5 5-5s5 2.24 5 5-2.24 5-5 5-5-2.24-5-5zm6.5-2c0-.83-.67-1.5-1.5-1.5S6.5 5.17 6.5 6 7.17 7.5 8 7.5 9.5 6.83 9.5 6zM5 9.99a3.6 3.6 0 006 0c-.015-.995-2.005-1.54-3-1.54-1 0-2.985.545-3 1.54z"/>
</symbol>
<symbol viewBox="0 0 16 16" id="phone" xmlns="http://www.w3.org/2000/svg"><path fill-rule="evenodd" clip-rule="evenodd" d="M8 16A8 8 0 108 0a8 8 0 000 16zm1.991-6.747a5.09 5.09 0 001.57.25c.239 0 .439.2.439.44v1.533c0 .244-.124.524-.44.524C7.436 12 4 8.569 4 4.44c0-.333.289-.44.529-.44h1.538c.24 0 .44.2.44.44 0 .547.084 1.076.249 1.569a.454.454 0 01-.107.453l-.867.738c.627 1.302 1.805 2.436 3.062 3.036l.698-.876c.12-.12.294-.16.45-.107z"/>
</symbol>
<symbol viewBox="0 0 12 12" id="tinyClose" xmlns="http://www.w3.org/2000/svg"><path d="M6 0C2.682 0 0 2.682 0 6s2.682 6 6 6 6-2.682 6-6-2.682-6-6-6zm0 10.8A4.806 4.806 0 011.2 6c0-2.646 2.154-4.8 4.8-4.8s4.8 2.154 4.8 4.8-2.154 4.8-4.8 4.8zM8.154 3L6 5.154 3.846 3 3 3.846 5.154 6 3 8.154 3.846 9 6 6.846 8.154 9 9 8.154 6.846 6 9 3.846 8.154 3z"/>
</symbol>
<symbol viewBox="0 0 16 16" id="vk" xmlns="http://www.w3.org/2000/svg">
<path d="M8 0a8 8 0 100 16A8 8 0 008 0zm4.058 8.865c.373.364.767.707 1.102 1.109.148.178.288.362.395.568.152.295.014.618-.25.636h-1.639c-.423.035-.76-.136-1.044-.426-.226-.23-.437-.477-.655-.715a1.533 1.533 0 00-.295-.263c-.224-.145-.418-.1-.546.133-.13.238-.16.5-.172.765-.018.387-.135.488-.523.506-.828.038-1.614-.087-2.345-.505-.645-.368-1.143-.888-1.578-1.477C3.66 8.048 3.013 6.788 2.43 5.493c-.13-.292-.035-.448.287-.455a45.59 45.59 0 011.605 0c.218.003.362.128.445.333.29.712.644 1.388 1.088 2.016.118.167.239.334.41.452.19.13.336.087.425-.125.057-.135.082-.279.094-.423a6.317 6.317 0 00-.026-1.482c-.045-.308-.219-.507-.526-.565-.156-.03-.134-.088-.057-.177.132-.155.255-.25.503-.25H8.53c.291.057.357.188.396.482l.002 2.058c-.003.113.057.45.261.525.164.054.272-.077.37-.18.444-.472.76-1.028 1.044-1.604.125-.254.233-.517.338-.78.077-.194.199-.29.418-.287l1.783.002c.053 0 .106 0 .158.01.3.051.383.18.29.474-.146.46-.43.844-.708 1.229-.298.411-.616.809-.91 1.222-.272.379-.25.569.086.897z"/>
</symbol>
</svg>